<?xml version="1.0" encoding="UTF-8"?>
<svg id="Layer_2" data-name="Layer 2" xmlns="http://www.w3.org/2000/svg" viewBox="0 0 800 186.33">
  <defs>
    <style>
      .cls-1 {
        fill: #e8e4ea;
        stroke-width: 0px;
      }
    </style>
  </defs>
  <g id="Layer_1-2" data-name="Layer 1">
    <g>
      <g>
        <path class="cls-1" d="M91.08,186.33C35.75,186.33,0,149.94,0,93.63S39.17,0,95.24,0c62.77,0,79.43,38.45,83.68,54.98.59,2.3.09,4.75-1.37,6.64-1.46,1.88-3.7,2.98-6.08,2.98h-24.02c-3.14,0-5.97-1.91-7.14-4.82-6.8-16.88-22.04-25.44-45.29-25.44-40.64,0-55.13,29.91-55.13,57.9,0,36.71,20.95,59.52,54.67,59.52,29.39,0,44.8-13.16,45.83-39.11h-45.37c-4.25,0-7.7-3.45-7.7-7.7v-19.63c0-4.25,3.45-7.7,7.7-7.7h75.53c4.25,0,7.7,3.45,7.7,7.7v89.85c0,4.25-3.45,7.7-7.7,7.7h-17.79c-3.76,0-6.98-2.72-7.6-6.43-.23-1.37-.49-3.5-.75-6.01-12.78,10.9-29.94,15.91-53.33,15.91Z"/>
        <path class="cls-1" d="M170.54,175.16h-17.79c-.69-4.16-1.85-17.09-1.85-24.25-10.86,17.56-27.72,27.72-59.83,27.72-51.74,0-83.38-33.96-83.38-85C7.7,45.35,40.5,7.7,95.24,7.7c48.97,0,69.99,24.95,76.22,49.2h-24.02c-6.24-15.48-20.56-30.26-52.43-30.26-41.11,0-62.83,28.87-62.83,65.6,0,38.8,21.94,67.22,62.37,67.22,34.19,0,53.59-17.32,53.59-49.66v-4.85h-53.13v-19.63h75.53v89.85Z"/>
        <path class="cls-1" d="M262.25,186.1c-45.54,0-69.37-34.9-69.37-69.37,0-40.2,29.66-69.37,70.53-69.37,45.69,0,69.6,34.9,69.6,69.37,0,18.64-6.32,35.76-17.81,48.19-12.8,13.86-31.11,21.18-52.95,21.18ZM262.48,80.77c-23.27,0-31.57,18.57-31.57,35.96s10.02,35.96,32.03,35.96c29.72,0,32.03-27.34,32.03-35.73,0-18.01-10.05-36.19-32.49-36.19Z"/>
        <path class="cls-1" d="M325.31,116.72c0,32.34-21.02,61.67-63.06,61.67-39.5,0-61.67-29.33-61.67-61.67s23.56-61.67,62.83-61.67,61.9,30.72,61.9,61.67ZM223.21,116.72c0,22.41,14.09,43.66,39.73,43.66s39.73-19.86,39.73-43.43-14.09-43.89-40.19-43.89-39.27,20.33-39.27,43.66Z"/>
        <path class="cls-1" d="M441.27,182.86c-4.25,0-7.7-3.45-7.7-7.7v-67.22c0-23.68-11.44-26.72-21.4-26.72-24.85,0-28.56,23.69-28.56,37.8v56.13c0,4.25-3.45,7.7-7.7,7.7h-21.94c-4.25,0-7.7-3.45-7.7-7.7v-87.31c0-9.7,0-20.69-.23-29.36-.05-2.08.73-4.09,2.18-5.58,1.45-1.49,3.44-2.33,5.52-2.33h21.25c3.9,0,7.19,2.92,7.65,6.8.05.43.1.9.15,1.42,7.76-6.28,19.1-11.45,35.4-11.45,32.67,0,52.97,21.71,52.97,56.67v71.14c0,4.25-3.45,7.7-7.7,7.7h-22.17Z"/>
        <path class="cls-1" d="M353.96,87.85c0-9.93,0-20.79-.23-29.57h21.25c.46,3.93.92,13.63.92,21.71,5.08-11.32,17.32-24.95,42.27-24.95,27.49,0,45.27,16.86,45.27,48.97v71.14h-22.17v-67.22c0-19.17-7.16-34.42-29.1-34.42-24.25,0-36.26,18.48-36.26,45.5v56.13h-21.94v-87.31Z"/>
        <path class="cls-1" d="M489.55,182.86c-4.25,0-7.7-3.45-7.7-7.7v-16.4c0-2.02.79-3.95,2.2-5.39l68.24-69.6h-58.35c-4.25,0-7.7-3.45-7.7-7.7v-17.79c0-4.25,3.45-7.7,7.7-7.7h104.87c4.25,0,7.7,3.45,7.7,7.7v16.86c0,2.01-.79,3.94-2.19,5.38l-67.36,68.92h67.17c2.3,0,4.47,1.03,5.94,2.8,1.46,1.77,2.06,4.1,1.63,6.36l-3.46,18.02c-.7,3.63-3.87,6.25-7.56,6.25h-111.1Z"/>
        <path class="cls-1" d="M489.55,158.76l81.07-82.69h-76.69v-17.79h104.87v16.86l-80.15,82h85.46l-3.46,18.02h-111.1v-16.4Z"/>
        <path class="cls-1" d="M627.52,182.86c-4.25,0-7.7-3.45-7.7-7.7v-16.4c0-2.02.79-3.95,2.2-5.39l68.24-69.6h-58.35c-4.25,0-7.7-3.45-7.7-7.7v-17.79c0-4.25,3.45-7.7,7.7-7.7h104.87c4.25,0,7.7,3.45,7.7,7.7v16.86c0,2.01-.79,3.94-2.19,5.38l-67.36,68.92h67.17c2.3,0,4.47,1.03,5.94,2.8,1.46,1.77,2.06,4.1,1.63,6.36l-3.46,18.02c-.7,3.63-3.87,6.25-7.56,6.25h-111.1Z"/>
        <path class="cls-1" d="M627.52,158.76l81.07-82.69h-76.69v-17.79h104.87v16.86l-80.15,82h85.46l-3.46,18.02h-111.1v-16.4Z"/>
      </g>
      <circle class="cls-1" cx="783.73" cy="166.6" r="16.27"/>
    </g>
  </g>
</svg>