<?xml version="1.0" encoding="UTF-8"?>
<svg id="Layer_2" data-name="Layer 2" xmlns="http://www.w3.org/2000/svg" viewBox="0 0 203.57 50">
  <defs>
    <style>
      .cls-1 {
        fill: #6c3f99;
      }

      .cls-1, .cls-2, .cls-3 {
        stroke-width: 0px;
      }

      .cls-2 {
        fill: #f93;
      }

      .cls-3 {
        fill: #e8e4ea;
      }
    </style>
  </defs>
  <g id="Layer_1-2" data-name="Layer 1">
    <g>
      <path class="cls-1" d="M50,25c0,2.03-4.9,3.38-5.4,5.25s3.03,5.55,2.05,7.25c-.99,1.72-5.91.45-7.31,1.84s-.13,6.31-1.84,7.31c-1.69.98-5.31-2.57-7.25-2.05s-3.23,5.4-5.25,5.4-3.38-4.9-5.25-5.4c-1.93-.52-5.55,3.03-7.25,2.05-1.72-.99-.45-5.91-1.84-7.31-1.39-1.39-6.31-.13-7.31-1.84-.98-1.69,2.57-5.31,2.05-7.25S0,27.03,0,25s4.9-3.38,5.4-5.25-3.03-5.55-2.05-7.25,5.91-.45,7.31-1.84c1.39-1.39.13-6.31,1.84-7.31,1.69-.98,5.31,2.57,7.25,2.05S22.97,0,25,0s3.38,4.9,5.25,5.4,5.55-3.03,7.25-2.05c1.72.99.45,5.91,1.84,7.31s6.31.13,7.31,1.84c.98,1.69-2.57,5.31-2.05,7.25.5,1.87,5.4,3.23,5.4,5.25Z"/>
      <circle class="cls-2" cx="178.57" cy="25" r="25"/>
      <path class="cls-3" d="M124.1,22.32h-15.85l11.21-11.21c1.05-1.05,1.05-2.74,0-3.79-1.05-1.05-2.74-1.05-3.79,0l-11.21,11.21V2.68C104.46,1.2,103.26,0,101.78,0s-2.68,1.2-2.68,2.68v15.85l-11.21-11.21c-1.05-1.05-2.74-1.05-3.79,0-1.05,1.05-1.05,2.74,0,3.79l11.21,11.21h-15.85c-1.48,0-2.68,1.2-2.68,2.68s1.2,2.68,2.68,2.68h15.85l-11.21,11.21c-1.05,1.05-1.05,2.74,0,3.79.52.52,1.21.78,1.89.78s1.37-.26,1.89-.78l11.21-11.21v15.85c0,1.48,1.2,2.68,2.68,2.68s2.68-1.2,2.68-2.68v-15.85l11.21,11.21c.52.52,1.21.78,1.89.78s1.37-.26,1.89-.78c1.05-1.05,1.05-2.74,0-3.79l-11.21-11.21h15.85c1.48,0,2.68-1.2,2.68-2.68s-1.2-2.68-2.68-2.68Z"/>
    </g>
  </g>
</svg>